<svg xmlns="http://www.w3.org/2000/svg" xmlns:xlink="http://www.w3.org/1999/xlink" width="1200" zoomAndPan="magnify" viewBox="0 0 900 599.999999" height="800" preserveAspectRatio="xMidYMid meet" version="1.0"><rect x="-90" width="1080" fill="#ffffff" y="-60" height="719.999999" fill-opacity="1"/><rect x="-90" width="1080" fill="#d1d7d8" y="-60" height="719.999999" fill-opacity="1"/><path fill="#eaeaea" d="M 766.292969 501.953125 C 755.867188 533.769531 727.625 560.117188 694.25 565.203125 C 668.828125 569.070312 643.082031 561.9375 617.371094 561.984375 C 592.457031 561.984375 567.953125 568.792969 543.109375 569.964844 C 537.941406 570.183594 532.773438 570.164062 527.605469 569.90625 C 522.441406 569.648438 517.296875 569.152344 512.175781 568.414062 C 507.054688 567.679688 501.980469 566.707031 496.949219 565.503906 C 491.917969 564.296875 486.957031 562.859375 482.058594 561.191406 C 477.160156 559.527344 472.351562 557.636719 467.628906 555.523438 C 462.910156 553.410156 458.296875 551.085938 453.789062 548.542969 C 449.28125 546.003906 444.90625 543.261719 440.652344 540.3125 C 436.402344 537.367188 432.296875 534.230469 428.335938 530.902344 C 414.414062 519.101562 402.417969 504.988281 387.351562 494.746094 C 372.285156 484.5 354.699219 478.246094 341.332031 466.023438 C 314.152344 441.269531 312.164062 398.460938 322.023438 363.003906 C 326.074219 348.539062 331.820312 334.34375 340.667969 322.183594 C 350.515625 308.671875 363.882812 298.078125 377.914062 289.003906 C 381.808594 286.472656 385.796875 284.039062 389.847656 281.6875 C 427.480469 259.789062 470.835938 244.324219 505.71875 218.761719 C 513.449219 213.070312 521.734375 208.355469 530.578125 204.625 C 539.425781 200.894531 548.582031 198.246094 558.054688 196.683594 C 571.070312 194.667969 584.15625 193.90625 597.3125 194.40625 C 622.542969 195.1875 648.167969 199.5625 670.359375 211.589844 C 692.550781 223.621094 710.992188 244.132812 716.402344 268.765625 C 720.933594 289.386719 716.210938 310.949219 718.546875 331.945312 C 724.007812 381.164062 766.957031 420.613281 770.4375 470.027344 C 771.144531 480.941406 769.761719 491.582031 766.292969 501.953125 Z M 766.292969 501.953125 " fill-opacity="1" fill-rule="nonzero"/><path fill="#f2c341" d="M 646.359375 410.957031 C 643.382812 417.074219 639.414062 422.457031 634.449219 427.109375 C 606.726562 453.238281 554.210938 452.175781 525.378906 446.210938 C 507.539062 442.511719 480.660156 436.945312 467.691406 414.164062 C 452.09375 386.757812 464.882812 348.914062 484.566406 328.4375 C 489.039062 323.898438 493.972656 319.929688 499.363281 316.53125 C 504.757812 313.132812 510.46875 310.398438 516.496094 308.324219 C 559.597656 292.859375 617.550781 305.910156 640.804688 342.863281 C 652.433594 361.425781 657.136719 388.832031 646.359375 410.957031 Z M 646.359375 410.957031 " fill-opacity="1" fill-rule="nonzero"/><path fill="#151515" d="M 634.449219 427.109375 C 606.726562 453.238281 554.210938 452.175781 525.378906 446.210938 C 507.539062 442.511719 480.660156 436.945312 467.691406 414.164062 C 452.09375 386.757812 464.882812 348.914062 484.566406 328.4375 C 489.039062 323.898438 493.972656 319.929688 499.363281 316.53125 C 504.757812 313.132812 510.46875 310.398438 516.496094 308.324219 C 500.824219 322.085938 487.253906 338.539062 481.335938 358.363281 C 474.257812 382.082031 481.03125 411.25 502.125 424.179688 C 510.417969 429.265625 520.109375 431.519531 529.679688 433.304688 C 564.503906 439.835938 602.207031 440.859375 634.449219 427.109375 Z M 634.449219 427.109375 " fill-opacity="0.04" fill-rule="nonzero"/><path fill="#151515" d="M 766.292969 501.953125 C 755.867188 533.769531 727.625 560.117188 694.25 565.203125 C 668.828125 569.070312 643.082031 561.9375 617.371094 561.984375 C 592.457031 561.984375 567.953125 568.792969 543.109375 569.964844 C 537.941406 570.183594 532.773438 570.164062 527.605469 569.90625 C 522.441406 569.648438 517.296875 569.152344 512.175781 568.414062 C 507.054688 567.679688 501.980469 566.707031 496.949219 565.503906 C 491.917969 564.296875 486.957031 562.859375 482.058594 561.191406 C 477.160156 559.527344 472.351562 557.636719 467.628906 555.523438 C 462.910156 553.410156 458.296875 551.085938 453.789062 548.542969 C 449.28125 546.003906 444.90625 543.261719 440.652344 540.3125 C 436.402344 537.367188 432.296875 534.230469 428.335938 530.902344 C 414.414062 519.101562 402.417969 504.988281 387.351562 494.746094 C 372.285156 484.5 354.699219 478.246094 341.332031 466.023438 C 314.152344 441.269531 312.164062 398.460938 322.023438 363.003906 C 326.074219 348.539062 331.820312 334.34375 340.667969 322.183594 C 350.515625 308.671875 363.882812 298.078125 377.914062 289.003906 C 381.808594 286.472656 385.796875 284.039062 389.847656 281.6875 C 371.285156 297.355469 352.179688 312.46875 339.621094 332.96875 C 315.117188 372.933594 323.011719 429.75 357.421875 461.554688 C 372.070312 475.078125 390.257812 483.984375 406.84375 495.09375 C 438.953125 516.632812 466.871094 547.472656 504.65625 555.695312 C 535.5625 562.417969 567.578125 552.609375 599.183594 553.65625 C 628.894531 554.644531 658.605469 565.226562 687.777344 559.527344 C 720.34375 553.164062 744.886719 528.179688 766.292969 501.953125 Z M 766.292969 501.953125 " fill-opacity="0.05" fill-rule="nonzero"/><path fill="#ffffff" d="M 641.03125 393.460938 C 641.214844 365.738281 627.496094 338.019531 604.726562 322.242188 C 581.957031 306.464844 550.703125 303.285156 525.65625 315.179688 C 522.96875 316.445312 520.074219 318.242188 519.484375 321.207031 C 518.484375 326.136719 524.449219 329.378906 529.355469 330.523438 C 551.269531 335.632812 575.257812 333.835938 595.035156 344.5625 C 610.066406 352.734375 623.507812 366.4375 627.507812 383.128906 C 630.101562 393.976562 641.863281 399.726562 641.03125 393.554688 " fill-opacity="0.15" fill-rule="nonzero"/><path fill="#ffffff" d="M 622.613281 209.265625 C 646.878906 214.617188 668.648438 229.019531 683.738281 248.15625 C 698.828125 267.296875 707.351562 291.003906 709.207031 315.011719 C 710.027344 325.558594 709.59375 336.164062 710.414062 346.707031 C 711.574219 362.664062 715.320312 377.988281 721.660156 392.675781 C 730.300781 412.730469 743.714844 431.351562 746.800781 452.9375 C 748.007812 461.070312 745.597656 471.835938 737.160156 472.980469 C 732.339844 473.628906 727.925781 470.640625 724.371094 467.472656 C 706.445312 451.527344 697.429688 428.109375 693.539062 404.800781 C 689.644531 381.492188 690.269531 357.796875 688.332031 334.320312 C 686.390625 310.839844 681.570312 286.820312 668.117188 267.175781 C 665.175781 262.941406 661.902344 258.980469 658.292969 255.296875 C 654.6875 251.609375 650.796875 248.253906 646.625 245.222656 C 642.453125 242.191406 638.058594 239.527344 633.441406 237.234375 C 628.820312 234.941406 624.042969 233.050781 619.105469 231.5625 C 614.121094 230.070312 609.046875 228.996094 603.886719 228.339844 C 598.722656 227.679688 593.542969 227.445312 588.34375 227.636719 C 583.140625 227.828125 577.992188 228.441406 572.890625 229.472656 C 567.792969 230.507812 562.808594 231.953125 557.945312 233.804688 C 549.113281 237.214844 533.671875 241.78125 531.949219 227.945312 C 530.839844 219.050781 538.722656 216.414062 546.148438 214.410156 C 570.628906 207.832031 597.519531 203.734375 622.613281 209.265625 Z M 622.613281 209.265625 " fill-opacity="0.25" fill-rule="nonzero"/></svg>