<svg xmlns="http://www.w3.org/2000/svg" xmlns:xlink="http://www.w3.org/1999/xlink" width="500" zoomAndPan="magnify" viewBox="0 0 375 374.999991" height="500" preserveAspectRatio="xMidYMid meet" version="1.0"><defs><clipPath id="8c9a2a4747"><path d="M 0 45.46875 L 375 45.46875 L 375 329.71875 L 0 329.71875 Z M 0 45.46875 " clip-rule="nonzero"/></clipPath></defs><g clip-path="url(#8c9a2a4747)"><path fill="#ffb933" d="M 351.765625 260.199219 L 23.1875 260.199219 C 23.1875 260.199219 9.050781 177.574219 0.96875 130.363281 C -0.03125 124.515625 2.433594 118.613281 7.296875 115.21875 C 12.160156 111.824219 18.546875 111.546875 23.6875 114.503906 C 45.90625 127.296875 75.835938 144.53125 92.554688 154.15625 C 99.636719 158.238281 108.671875 156.027344 113.078125 149.136719 C 127.285156 126.917969 157.339844 79.910156 174.585938 52.9375 C 177.398438 48.535156 182.257812 45.875 187.476562 45.875 C 192.695312 45.875 197.554688 48.535156 200.367188 52.9375 C 217.613281 79.910156 247.667969 126.917969 261.875 149.136719 C 266.28125 156.027344 275.316406 158.238281 282.398438 154.15625 C 299.121094 144.53125 329.046875 127.296875 351.269531 114.503906 C 356.40625 111.546875 362.792969 111.824219 367.65625 115.21875 C 372.519531 118.613281 374.984375 124.515625 373.984375 130.363281 C 365.90625 177.574219 351.765625 260.199219 351.765625 260.199219 Z M 351.765625 287.097656 L 351.765625 314.058594 C 351.765625 322.515625 344.914062 329.371094 336.460938 329.371094 C 281.378906 329.371094 93.574219 329.371094 38.492188 329.371094 C 30.039062 329.371094 23.1875 322.515625 23.1875 314.058594 C 23.1875 301.957031 23.1875 287.097656 23.1875 287.097656 Z M 351.765625 287.097656 " fill-opacity="1" fill-rule="evenodd"/></g></svg>