<svg xmlns="http://www.w3.org/2000/svg" xmlns:xlink="http://www.w3.org/1999/xlink" width="500" zoomAndPan="magnify" viewBox="0 0 375 374.999991" height="500" preserveAspectRatio="xMidYMid meet" version="1.0"><defs><clipPath id="174012b002"><path d="M 0 50.625 L 375 50.625 L 375 324.375 L 0 324.375 Z M 0 50.625 " clip-rule="nonzero"/></clipPath></defs><g clip-path="url(#174012b002)"><path fill="#ffb933" d="M 302.867188 315.730469 C 301.882812 320.710938 297.511719 324.304688 292.433594 324.304688 C 256.292969 324.304688 118.757812 324.304688 82.621094 324.304688 C 77.542969 324.304688 73.171875 320.710938 72.183594 315.730469 C 67.65625 292.820312 55.152344 229.554688 48.25 194.628906 C 47.429688 190.476562 49.148438 186.234375 52.625 183.824219 C 56.101562 181.414062 60.675781 181.292969 64.277344 183.515625 C 81.847656 194.375 106.222656 209.4375 119.433594 217.601562 C 121.894531 219.125 124.875 219.578125 127.679688 218.855469 C 130.480469 218.132812 132.871094 216.296875 134.292969 213.777344 C 144.328125 195.953125 165.875 157.707031 178.257812 135.722656 C 180.144531 132.375 183.6875 130.304688 187.527344 130.304688 C 191.367188 130.304688 194.910156 132.375 196.792969 135.722656 C 209.175781 157.707031 230.722656 195.953125 240.761719 213.777344 C 242.183594 216.296875 244.570312 218.132812 247.375 218.855469 C 250.179688 219.578125 253.15625 219.125 255.621094 217.601562 C 268.832031 209.4375 293.203125 194.375 310.777344 183.515625 C 314.375 181.292969 318.949219 181.414062 322.429688 183.824219 C 325.90625 186.234375 327.625 190.476562 326.804688 194.628906 C 319.898438 229.554688 307.394531 292.820312 302.867188 315.730469 Z M 26.796875 112.542969 C 41.535156 112.542969 53.496094 124.507812 53.496094 139.242188 C 53.496094 153.980469 41.535156 165.941406 26.796875 165.941406 C 12.0625 165.941406 0.0976562 153.980469 0.0976562 139.242188 C 0.0976562 124.507812 12.0625 112.542969 26.796875 112.542969 Z M 348.253906 112.542969 C 362.992188 112.542969 374.957031 124.507812 374.957031 139.242188 C 374.957031 153.980469 362.992188 165.941406 348.253906 165.941406 C 333.519531 165.941406 321.554688 153.980469 321.554688 139.242188 C 321.554688 124.507812 333.519531 112.542969 348.253906 112.542969 Z M 187.527344 50.597656 C 202.261719 50.597656 214.226562 62.558594 214.226562 77.296875 C 214.226562 92.03125 202.261719 103.996094 187.527344 103.996094 C 172.789062 103.996094 160.828125 92.03125 160.828125 77.296875 C 160.828125 62.558594 172.789062 50.597656 187.527344 50.597656 Z M 187.527344 50.597656 " fill-opacity="1" fill-rule="evenodd"/></g></svg>