<svg xmlns="http://www.w3.org/2000/svg" xmlns:xlink="http://www.w3.org/1999/xlink" width="1200" zoomAndPan="magnify" viewBox="0 0 900 599.999999" height="800" preserveAspectRatio="xMidYMid meet" version="1.0"><defs><clipPath id="92b333c51b"><path d="M 320.917969 388 L 566 388 L 566 561.074219 L 320.917969 561.074219 Z M 320.917969 388 " clip-rule="nonzero"/></clipPath><clipPath id="6b28ff4571"><path d="M 326 468 L 564 468 L 564 561.074219 L 326 561.074219 Z M 326 468 " clip-rule="nonzero"/></clipPath><clipPath id="ecefb56ccf"><path d="M 497 349 L 577.417969 349 L 577.417969 405 L 497 405 Z M 497 349 " clip-rule="nonzero"/></clipPath><clipPath id="7189717101"><path d="M 98 480 L 124 480 L 124 527 L 98 527 Z M 98 480 " clip-rule="nonzero"/></clipPath><clipPath id="eaef29fb94"><path d="M 69.460938 492.71875 L 142.554688 470.144531 L 156.273438 514.574219 L 83.183594 537.148438 Z M 69.460938 492.71875 " clip-rule="nonzero"/></clipPath><clipPath id="0105d5ab4f"><path d="M 69.4375 492.726562 L 142.53125 470.152344 L 156.25 514.582031 L 83.15625 537.15625 Z M 69.4375 492.726562 " clip-rule="nonzero"/></clipPath><clipPath id="3a71355c91"><path d="M 76 507 L 105 507 L 105 530 L 76 530 Z M 76 507 " clip-rule="nonzero"/></clipPath><clipPath id="c19e916d3c"><path d="M 69.460938 492.71875 L 142.554688 470.144531 L 156.273438 514.574219 L 83.183594 537.148438 Z M 69.460938 492.71875 " clip-rule="nonzero"/></clipPath><clipPath id="7cf0efa57d"><path d="M 69.4375 492.726562 L 142.53125 470.152344 L 156.25 514.582031 L 83.15625 537.15625 Z M 69.4375 492.726562 " clip-rule="nonzero"/></clipPath><clipPath id="4a7855a745"><path d="M 125 497 L 154 497 L 154 524 L 125 524 Z M 125 497 " clip-rule="nonzero"/></clipPath><clipPath id="e4f1c1cbac"><path d="M 69.460938 492.71875 L 142.554688 470.144531 L 156.273438 514.574219 L 83.183594 537.148438 Z M 69.460938 492.71875 " clip-rule="nonzero"/></clipPath><clipPath id="1fee39b44e"><path d="M 69.4375 492.726562 L 142.53125 470.152344 L 156.25 514.582031 L 83.15625 537.15625 Z M 69.4375 492.726562 " clip-rule="nonzero"/></clipPath><clipPath id="ad3af3c352"><path d="M 729 480 L 758 480 L 758 524 L 729 524 Z M 729 480 " clip-rule="nonzero"/></clipPath><clipPath id="20159474b3"><path d="M 714.746094 467.167969 L 785.546875 496.144531 L 767.933594 539.179688 L 697.132812 510.203125 Z M 714.746094 467.167969 " clip-rule="nonzero"/></clipPath><clipPath id="26bc4762cf"><path d="M 714.722656 467.160156 L 785.523438 496.132812 L 767.910156 539.171875 L 697.109375 510.195312 Z M 714.722656 467.160156 " clip-rule="nonzero"/></clipPath><clipPath id="e2ccf76b6a"><path d="M 704 486 L 723 486 L 723 518 L 704 518 Z M 704 486 " clip-rule="nonzero"/></clipPath><clipPath id="c57fede125"><path d="M 714.746094 467.167969 L 785.546875 496.144531 L 767.933594 539.179688 L 697.132812 510.203125 Z M 714.746094 467.167969 " clip-rule="nonzero"/></clipPath><clipPath id="dfe59d9fdf"><path d="M 714.722656 467.160156 L 785.523438 496.132812 L 767.910156 539.171875 L 697.109375 510.195312 Z M 714.722656 467.160156 " clip-rule="nonzero"/></clipPath><clipPath id="8f6a490340"><path d="M 739 513 L 774 513 L 774 532 L 739 532 Z M 739 513 " clip-rule="nonzero"/></clipPath><clipPath id="bb4e83ce00"><path d="M 714.746094 467.167969 L 785.546875 496.144531 L 767.933594 539.179688 L 697.132812 510.203125 Z M 714.746094 467.167969 " clip-rule="nonzero"/></clipPath><clipPath id="2903d81270"><path d="M 714.722656 467.160156 L 785.523438 496.132812 L 767.910156 539.171875 L 697.109375 510.195312 Z M 714.722656 467.160156 " clip-rule="nonzero"/></clipPath><clipPath id="b730b96587"><path d="M 23.277344 522 L 877.527344 522 L 877.527344 600 L 23.277344 600 Z M 23.277344 522 " clip-rule="nonzero"/></clipPath><clipPath id="2b4ef69afc"><path d="M 636 392 L 652 392 L 652 423 L 636 423 Z M 636 392 " clip-rule="nonzero"/></clipPath><clipPath id="2f8e7f7dd8"><path d="M 618.535156 394.492188 L 667.082031 390.046875 L 669.820312 419.921875 L 621.273438 424.367188 Z M 618.535156 394.492188 " clip-rule="nonzero"/></clipPath><clipPath id="fa4ad92372"><path d="M 618.1875 394.523438 L 667.484375 390.011719 L 670.21875 419.886719 L 620.925781 424.398438 Z M 618.1875 394.523438 " clip-rule="nonzero"/></clipPath><clipPath id="ffd9aef5c3"><path d="M 619 405 L 636 405 L 636 423 L 619 423 Z M 619 405 " clip-rule="nonzero"/></clipPath><clipPath id="4086d34aa1"><path d="M 618.535156 394.492188 L 667.082031 390.046875 L 669.820312 419.921875 L 621.273438 424.367188 Z M 618.535156 394.492188 " clip-rule="nonzero"/></clipPath><clipPath id="92b3521910"><path d="M 618.1875 394.523438 L 667.484375 390.011719 L 670.21875 419.886719 L 620.925781 424.398438 Z M 618.1875 394.523438 " clip-rule="nonzero"/></clipPath><clipPath id="dc7fa6fb0f"><path d="M 650 407 L 670 407 L 670 422 L 650 422 Z M 650 407 " clip-rule="nonzero"/></clipPath><clipPath id="a29451d81f"><path d="M 618.535156 394.492188 L 667.082031 390.046875 L 669.820312 419.921875 L 621.273438 424.367188 Z M 618.535156 394.492188 " clip-rule="nonzero"/></clipPath><clipPath id="8e5387ec03"><path d="M 618.1875 394.523438 L 667.484375 390.011719 L 670.21875 419.886719 L 620.925781 424.398438 Z M 618.1875 394.523438 " clip-rule="nonzero"/></clipPath><clipPath id="6985f366b7"><path d="M 202 418 L 219 418 L 219 449 L 202 449 Z M 202 418 " clip-rule="nonzero"/></clipPath><clipPath id="7f7a7e19ef"><path d="M 187.019531 415.414062 L 235.410156 421.335938 L 231.765625 451.113281 L 183.378906 445.191406 Z M 187.019531 415.414062 " clip-rule="nonzero"/></clipPath><clipPath id="321c0cfb6b"><path d="M 186.675781 415.371094 L 235.808594 421.382812 L 232.164062 451.160156 L 183.03125 445.148438 Z M 186.675781 415.371094 " clip-rule="nonzero"/></clipPath><clipPath id="2ff0e47dc6"><path d="M 184 427 L 198 427 L 198 447 L 184 447 Z M 184 427 " clip-rule="nonzero"/></clipPath><clipPath id="9495e8fc67"><path d="M 187.019531 415.414062 L 235.410156 421.335938 L 231.765625 451.113281 L 183.378906 445.191406 Z M 187.019531 415.414062 " clip-rule="nonzero"/></clipPath><clipPath id="993d6231aa"><path d="M 186.675781 415.371094 L 235.808594 421.382812 L 232.164062 451.160156 L 183.03125 445.148438 Z M 186.675781 415.371094 " clip-rule="nonzero"/></clipPath><clipPath id="6ba3367a99"><path d="M 212 436 L 234 436 L 234 449 L 212 449 Z M 212 436 " clip-rule="nonzero"/></clipPath><clipPath id="d24d4acfbd"><path d="M 187.019531 415.414062 L 235.410156 421.335938 L 231.765625 451.113281 L 183.378906 445.191406 Z M 187.019531 415.414062 " clip-rule="nonzero"/></clipPath><clipPath id="7873cabaab"><path d="M 186.675781 415.371094 L 235.808594 421.382812 L 232.164062 451.160156 L 183.03125 445.148438 Z M 186.675781 415.371094 " clip-rule="nonzero"/></clipPath></defs><rect x="-90" width="1080" fill="#ffffff" y="-60" height="719.999999" fill-opacity="1"/><rect x="-90" width="1080" fill="#fffaee" y="-60" height="719.999999" fill-opacity="1"/><path fill="#84ccee" d="M 0.015625 499.609375 C 91.09375 431.933594 216.367188 448.132812 336.0625 480.351562 C 455.761719 512.570312 556.738281 427.613281 665.453125 428.875 C 774.167969 430.132812 840.226562 487.910156 899.984375 492.230469 L 899.984375 634.066406 L 0.015625 634.066406 Z M 0.015625 499.609375 " fill-opacity="1" fill-rule="nonzero"/><g clip-path="url(#92b333c51b)"><path fill="#a388cd" d="M 548.980469 390.097656 C 564.105469 374.972656 584.617188 492.097656 527.601562 539.765625 C 507.953125 556.191406 484.839844 560.921875 470.585938 560.921875 C 453.6875 560.921875 399.109375 561.144531 377.933594 561.144531 C 326.761719 561.144531 320.917969 526.042969 320.917969 482.75 C 320.917969 439.453125 326.761719 404.351562 377.933594 404.351562 C 420.695312 404.351562 449.203125 418.605469 470.585938 432.832031 C 506.054688 456.433594 513.289062 460.347656 527.601562 447.113281 C 550.5 425.945312 534.726562 404.351562 548.980469 390.097656 Z M 548.980469 390.097656 " fill-opacity="1" fill-rule="nonzero"/></g><g clip-path="url(#6b28ff4571)"><path fill="#c3abeb" d="M 563.257812 468.496094 C 559.941406 495.054688 548.710938 522.109375 527.601562 539.765625 C 507.953125 556.191406 484.839844 560.921875 470.585938 560.921875 C 453.6875 560.921875 399.109375 561.144531 377.933594 561.144531 C 349.179688 561.144531 334.730469 550.0625 327.605469 532.664062 C 322.039062 519.109375 349.425781 539.765625 427.824219 539.765625 C 527.601562 539.765625 548.980469 504.128906 563.257812 468.496094 Z M 563.257812 468.496094 " fill-opacity="1" fill-rule="nonzero"/></g><g clip-path="url(#ecefb56ccf)"><path fill="#a388cd" d="M 548.980469 404.351562 C 578.367188 404.351562 577.488281 368.71875 577.488281 354.464844 C 577.488281 340.210938 563.234375 361.589844 541.855469 368.71875 C 520.472656 375.84375 491.964844 354.464844 499.09375 368.71875 C 506.21875 382.972656 520.472656 404.351562 548.980469 404.351562 Z M 548.980469 404.351562 " fill-opacity="1" fill-rule="nonzero"/></g><path fill="#76b7d5" d="M 392.1875 354.464844 C 392.1875 370.207031 385.804688 397.226562 377.933594 397.226562 C 370.066406 397.226562 363.679688 370.207031 363.679688 354.464844 C 363.679688 338.71875 370.066406 340.210938 377.933594 340.210938 C 385.804688 340.210938 392.1875 338.71875 392.1875 354.464844 Z M 392.1875 354.464844 " fill-opacity="1" fill-rule="nonzero"/><path fill="#76b7d5" d="M 377.933594 340.210938 C 377.933594 318.828125 335.171875 325.957031 335.171875 340.210938 C 335.171875 354.464844 356.554688 347.335938 363.679688 361.589844 C 370.808594 375.84375 377.933594 340.210938 377.933594 340.210938 Z M 377.933594 340.210938 C 377.933594 318.828125 420.695312 325.957031 420.695312 340.210938 C 420.695312 354.464844 399.316406 347.335938 392.1875 361.589844 C 385.0625 375.84375 377.933594 340.210938 377.933594 340.210938 Z M 377.933594 340.210938 " fill-opacity="1" fill-rule="nonzero"/><path fill="#292f33" d="M 377.933594 486.3125 C 377.933594 487.011719 377.867188 487.707031 377.730469 488.398438 C 377.59375 489.085938 377.390625 489.753906 377.121094 490.402344 C 376.851562 491.050781 376.523438 491.667969 376.132812 492.25 C 375.742188 492.835938 375.300781 493.375 374.804688 493.871094 C 374.308594 494.367188 373.769531 494.808594 373.183594 495.199219 C 372.601562 495.589844 371.984375 495.917969 371.335938 496.1875 C 370.6875 496.457031 370.019531 496.660156 369.332031 496.796875 C 368.640625 496.933594 367.945312 497.003906 367.246094 497.003906 C 366.542969 497.003906 365.847656 496.933594 365.160156 496.796875 C 364.46875 496.660156 363.800781 496.457031 363.152344 496.1875 C 362.503906 495.917969 361.890625 495.589844 361.304688 495.199219 C 360.722656 494.808594 360.183594 494.367188 359.683594 493.871094 C 359.1875 493.375 358.746094 492.835938 358.355469 492.25 C 357.964844 491.667969 357.636719 491.050781 357.367188 490.402344 C 357.097656 489.753906 356.898438 489.085938 356.757812 488.398438 C 356.621094 487.707031 356.554688 487.011719 356.554688 486.3125 C 356.554688 485.609375 356.621094 484.914062 356.757812 484.226562 C 356.898438 483.539062 357.097656 482.867188 357.367188 482.21875 C 357.636719 481.570312 357.964844 480.957031 358.355469 480.371094 C 358.746094 479.789062 359.1875 479.25 359.683594 478.753906 C 360.183594 478.257812 360.722656 477.8125 361.304688 477.421875 C 361.890625 477.03125 362.503906 476.703125 363.152344 476.433594 C 363.800781 476.167969 364.46875 475.964844 365.160156 475.828125 C 365.847656 475.691406 366.542969 475.621094 367.246094 475.621094 C 367.945312 475.621094 368.640625 475.691406 369.332031 475.828125 C 370.019531 475.964844 370.6875 476.167969 371.335938 476.433594 C 371.984375 476.703125 372.601562 477.03125 373.183594 477.421875 C 373.769531 477.8125 374.308594 478.257812 374.804688 478.753906 C 375.300781 479.25 375.742188 479.789062 376.132812 480.371094 C 376.523438 480.957031 376.851562 481.570312 377.121094 482.21875 C 377.390625 482.867188 377.59375 483.539062 377.730469 484.226562 C 377.867188 484.914062 377.933594 485.609375 377.933594 486.3125 Z M 377.933594 486.3125 " fill-opacity="1" fill-rule="nonzero"/><path fill="#76b7d5" d="M 0.015625 560.417969 C 91.09375 492.742188 216.367188 508.941406 336.0625 541.160156 C 455.761719 573.378906 556.738281 488.421875 665.453125 489.679688 C 774.167969 490.941406 840.226562 548.71875 899.984375 553.039062 L 899.984375 694.875 L 0.015625 694.875 Z M 0.015625 560.417969 " fill-opacity="1" fill-rule="nonzero"/><g clip-path="url(#7189717101)"><g clip-path="url(#eaef29fb94)"><g clip-path="url(#0105d5ab4f)"><path fill="#fffaee" d="M 122.5625 499.851562 C 124.835938 493.042969 120.105469 484.269531 115.269531 482.21875 C 107.507812 478.933594 101.636719 482.363281 99.3125 487.753906 C 95.058594 497.613281 105.136719 516.066406 116.816406 526.894531 C 113.953125 511.707031 117.992188 516.222656 122.5625 499.851562 " fill-opacity="1" fill-rule="nonzero"/></g></g></g><g clip-path="url(#3a71355c91)"><g clip-path="url(#c19e916d3c)"><g clip-path="url(#7cf0efa57d)"><path fill="#fffaee" d="M 104.894531 529.238281 C 98.246094 525.421875 101.355469 516.09375 92.265625 508.703125 C 84.332031 503.460938 71.890625 511.140625 78.636719 520.464844 C 82.664062 526.023438 99.453125 529.097656 104.894531 529.238281 " fill-opacity="1" fill-rule="nonzero"/></g></g></g><g clip-path="url(#4a7855a745)"><g clip-path="url(#e4f1c1cbac)"><g clip-path="url(#1fee39b44e)"><path fill="#fffaee" d="M 140.914062 514.726562 C 145.542969 513.230469 151.15625 511.152344 152.730469 506.589844 C 153.910156 503.203125 152.332031 500.085938 148.25 498.59375 C 137.527344 494.667969 129.191406 502.027344 126.878906 510.117188 C 126.128906 512.71875 124.992188 518.886719 126.78125 523.035156 C 127.371094 518.203125 137.253906 515.917969 140.914062 514.726562 " fill-opacity="1" fill-rule="nonzero"/></g></g></g><g clip-path="url(#ad3af3c352)"><g clip-path="url(#20159474b3)"><g clip-path="url(#26bc4762cf)"><path fill="#fffaee" d="M 751.238281 506.398438 C 757.316406 502.582031 759.234375 492.804688 756.800781 488.148438 C 752.890625 480.679688 746.179688 479.601562 740.957031 482.289062 C 731.414062 487.207031 727.480469 507.859375 729.625 523.640625 C 737.058594 510.089844 737.3125 516.140625 751.238281 506.398438 " fill-opacity="1" fill-rule="nonzero"/></g></g></g><g clip-path="url(#e2ccf76b6a)"><g clip-path="url(#c57fede125)"><g clip-path="url(#dfe59d9fdf)"><path fill="#fffaee" d="M 718.929688 517.882812 C 716.21875 510.710938 724.542969 505.480469 722.210938 494 C 719.414062 484.910156 704.925781 482.941406 704.21875 494.429688 C 703.796875 501.28125 714.8125 514.316406 718.929688 517.882812 " fill-opacity="1" fill-rule="nonzero"/></g></g></g><g clip-path="url(#8f6a490340)"><g clip-path="url(#bb4e83ce00)"><g clip-path="url(#2903d81270)"><path fill="#fffaee" d="M 755.96875 529.546875 C 760.496094 531.328125 766.152344 533.285156 770.261719 530.761719 C 773.328125 528.890625 774.085938 525.484375 771.882812 521.738281 C 766.089844 511.898438 754.980469 512.289062 748.054688 517.070312 C 745.824219 518.605469 741.027344 522.644531 739.773438 526.988281 C 743.300781 523.632812 752.386719 528.136719 755.96875 529.546875 " fill-opacity="1" fill-rule="nonzero"/></g></g></g><g clip-path="url(#b730b96587)"><path fill="#84ccee" d="M 23.285156 589.410156 C 109.707031 525.191406 228.578125 540.5625 342.152344 571.132812 C 455.726562 601.707031 551.542969 521.09375 654.699219 522.289062 C 757.855469 523.484375 820.539062 578.308594 877.238281 582.40625 L 877.238281 716.988281 L 23.285156 716.988281 Z M 23.285156 589.410156 " fill-opacity="1" fill-rule="nonzero"/></g><g clip-path="url(#2b4ef69afc)"><g clip-path="url(#2f8e7f7dd8)"><g clip-path="url(#fa4ad92372)"><path fill="#84ccee" d="M 650.863281 406.136719 C 653.210938 402.128906 651.390625 395.945312 648.601562 394 C 644.132812 390.882812 639.957031 392.269531 637.761719 395.371094 C 633.753906 401.042969 637.664062 414.070312 643.609375 422.484375 C 643.828125 412.488281 645.78125 415.886719 650.863281 406.136719 " fill-opacity="1" fill-rule="nonzero"/></g></g></g><g clip-path="url(#ffd9aef5c3)"><g clip-path="url(#4086d34aa1)"><g clip-path="url(#92b3521910)"><path fill="#84ccee" d="M 635.75 422.375 C 632.050781 419.066406 635.265625 413.582031 630.503906 407.6875 C 626.183594 403.308594 617.277344 406.503906 620.304688 413.308594 C 622.109375 417.367188 632.324219 421.558594 635.75 422.375 " fill-opacity="1" fill-rule="nonzero"/></g></g></g><g clip-path="url(#dc7fa6fb0f)"><g clip-path="url(#a29451d81f)"><g clip-path="url(#8e5387ec03)"><path fill="#84ccee" d="M 660.488281 418.007812 C 663.617188 417.679688 667.449219 417.113281 669.054688 414.4375 C 670.253906 412.449219 669.671875 410.265625 667.289062 408.777344 C 661.027344 404.859375 654.769531 408.398438 652.222656 413.210938 C 651.398438 414.757812 649.855469 418.507812 650.433594 421.375 C 651.453125 418.394531 658.011719 418.269531 660.488281 418.007812 " fill-opacity="1" fill-rule="nonzero"/></g></g></g><g clip-path="url(#6985f366b7)"><g clip-path="url(#7f7a7e19ef)"><g clip-path="url(#321c0cfb6b)"><path fill="#84ccee" d="M 216.152344 433.628906 C 219.296875 430.210938 218.824219 423.78125 216.511719 421.292969 C 212.800781 417.300781 208.425781 417.769531 205.625 420.335938 C 200.507812 425.035156 201.574219 438.59375 205.605469 448.074219 C 207.933594 438.351562 209.125 442.085938 216.152344 433.628906 " fill-opacity="1" fill-rule="nonzero"/></g></g></g><g clip-path="url(#2ff0e47dc6)"><g clip-path="url(#9495e8fc67)"><g clip-path="url(#993d6231aa)"><path fill="#84ccee" d="M 197.949219 446.304688 C 195.035156 442.292969 199.335938 437.609375 195.925781 430.84375 C 192.628906 425.648438 183.25 426.890625 184.769531 434.179688 C 185.675781 438.527344 194.773438 444.78125 197.949219 446.304688 " fill-opacity="1" fill-rule="nonzero"/></g></g></g><g clip-path="url(#6ba3367a99)"><g clip-path="url(#d24d4acfbd)"><g clip-path="url(#7873cabaab)"><path fill="#84ccee" d="M 223.050781 447.269531 C 226.179688 447.609375 230.042969 447.867188 232.179688 445.589844 C 233.773438 443.902344 233.664062 441.644531 231.652344 439.683594 C 226.359375 434.53125 219.492188 436.667969 215.988281 440.832031 C 214.855469 442.171875 212.550781 445.511719 212.511719 448.433594 C 214.136719 445.738281 220.574219 447 223.050781 447.269531 " fill-opacity="1" fill-rule="nonzero"/></g></g></g></svg>