<svg xmlns="http://www.w3.org/2000/svg" xmlns:xlink="http://www.w3.org/1999/xlink" width="1200" zoomAndPan="magnify" viewBox="0 0 900 599.999999" height="800" preserveAspectRatio="xMidYMid meet" version="1.0"><defs><clipPath id="219581b322"><path d="M 656 154 L 824 154 L 824 465.328125 L 656 465.328125 Z M 656 154 " clip-rule="nonzero"/></clipPath><clipPath id="f2d436f427"><path d="M 647.871094 175 L 845.871094 175 L 845.871094 266 L 647.871094 266 Z M 647.871094 175 " clip-rule="nonzero"/></clipPath><clipPath id="36d2f6a051"><path d="M 505 216 L 654 216 L 654 492.6875 L 505 492.6875 Z M 505 216 " clip-rule="nonzero"/></clipPath><clipPath id="8e81298620"><path d="M 497.890625 234 L 674.140625 234 L 674.140625 316 L 497.890625 316 Z M 497.890625 234 " clip-rule="nonzero"/></clipPath><clipPath id="1b71d50337"><path d="M 552 411 L 900 411 L 900 499.617188 L 552 499.617188 Z M 552 411 " clip-rule="nonzero"/></clipPath></defs><rect x="-90" width="1080" fill="#ffffff" y="-60" height="719.999999" fill-opacity="1"/><rect x="-90" width="1080" fill="#d1d7d8" y="-60" height="719.999999" fill-opacity="1"/><g clip-path="url(#219581b322)"><path fill="#ffffff" d="M 819.417969 413.414062 C 816.199219 423.984375 812.285156 434.773438 804.660156 443.003906 C 788.234375 461.800781 761.601562 465.273438 737.964844 465.074219 C 727.140625 465.191406 716.335938 464.121094 705.789062 461.621094 C 698.957031 460.015625 692.003906 458.09375 685.90625 454.621094 C 676.710938 448.890625 668.546875 441.039062 663.304688 431.5 C 659.472656 423.6875 656.96875 415.101562 656.234375 406.433594 C 655.875 399.335938 656.613281 392.238281 657.625 385.214844 C 658.539062 379.050781 659.710938 372.902344 661.734375 366.992188 C 663.941406 360.605469 666.820312 354.835938 669.640625 348.789062 C 673.316406 340.695312 677.40625 332.6875 683.484375 326.121094 C 685.769531 323.582031 688.3125 321.261719 691.070312 319.261719 C 688.789062 316.960938 687.21875 313.707031 685.570312 311.070312 C 681.835938 304.726562 680.78125 297.25 681.636719 290.011719 C 682.171875 283.785156 682.910156 277.558594 684.296875 271.488281 C 685.789062 263.65625 688.648438 256.160156 692.996094 249.496094 C 697.585938 242.992188 703.644531 238.234375 710.636719 234.902344 C 700.785156 226.691406 693.8125 215.191406 695.601562 202.160156 C 697.488281 190.878906 700.683594 179.179688 708.488281 170.453125 C 732.324219 145.882812 772.882812 150.644531 786.546875 183.363281 C 794.210938 200.277344 788.988281 219.117188 777.449219 232.144531 C 780.289062 234.128906 783.011719 236.546875 785.613281 239.441406 C 787.996094 242.21875 789.824219 245.433594 791.769531 248.503906 C 793.835938 251.777344 795.621094 255.226562 796.753906 258.957031 C 802.554688 275.753906 802.355469 294.671875 792.5625 309.941406 C 791.035156 312.5 789.386719 315.015625 787.460938 317.296875 C 788.988281 317.714844 790.5 318.210938 791.96875 318.824219 C 804.402344 327.152344 812.367188 338.078125 817.152344 349.996094 C 825.535156 370.917969 824.023438 394.933594 819.417969 413.414062 Z M 819.417969 413.414062 " fill-opacity="1" fill-rule="nonzero"/></g><g clip-path="url(#f2d436f427)"><path fill="#000000" d="M 739.253906 204.660156 C 733.394531 203.550781 726.542969 201.648438 723.503906 196.074219 C 723.265625 195.617188 722.929688 195.023438 723.328125 194.546875 C 723.824219 193.992188 724.519531 194.410156 724.757812 194.984375 C 725.550781 196.3125 726.542969 197.480469 727.796875 198.394531 C 735.738281 203.589844 746.882812 204.859375 755.085938 199.585938 C 757.765625 197.9375 759.832031 195.261719 760.984375 192.367188 C 760.90625 190.699219 763.1875 190.523438 763.089844 192.246094 C 760.328125 202.082031 748.628906 206.347656 739.253906 204.660156 Z M 791.96875 255.644531 C 791.273438 253.917969 792.902344 253.046875 794.191406 252.351562 C 794.492188 252.195312 794.75 252.054688 794.925781 251.917969 L 794.988281 251.875 C 796.199219 251.203125 797.351562 250.585938 798.484375 249.992188 L 799.933594 249.21875 C 801.144531 248.566406 808.75 244.300781 809.984375 243.667969 C 811.15625 243.050781 812.285156 242.457031 813.378906 241.882812 L 813.378906 241.863281 C 813.398438 241.78125 813.417969 241.703125 813.4375 241.605469 L 813.457031 241.546875 C 814.570312 237.996094 815.78125 234.546875 817.011719 231.09375 L 817.988281 228.339844 C 818.207031 227.703125 818.402344 227.109375 818.582031 226.574219 C 818.761719 226 818.941406 225.441406 819.097656 224.925781 C 819.160156 224.6875 819.179688 224.628906 819.21875 224.53125 C 819.574219 223.164062 820.050781 221.398438 822.097656 221.832031 L 822.15625 221.855469 C 824.0625 222.46875 823.886719 223.976562 823.410156 225.441406 C 823.308594 225.761719 823.210938 226 823.132812 226.234375 C 822.992188 226.59375 822.871094 226.929688 822.8125 227.167969 L 822.792969 227.226562 C 822.078125 229.25 821.285156 231.273438 820.507812 233.316406 C 820.070312 234.445312 819.617188 235.597656 819.097656 236.964844 L 819.097656 236.984375 C 818.820312 237.71875 818.503906 238.53125 818.207031 239.363281 L 818.722656 239.105469 C 822.375 237.203125 826.070312 235.359375 829.824219 233.652344 C 833.578125 231.949219 837.410156 230.378906 841.34375 229.050781 L 841.363281 229.03125 C 842.199219 228.773438 842.914062 229.050781 843.410156 229.546875 C 843.628906 229.765625 843.785156 230.023438 843.886719 230.320312 C 843.984375 230.597656 844.046875 230.917969 844.023438 231.214844 C 843.984375 231.90625 843.628906 232.5625 842.8125 232.917969 L 842.753906 232.9375 C 839.753906 233.988281 836.816406 235.160156 833.914062 236.410156 C 831.691406 237.359375 829.488281 238.371094 827.261719 239.421875 L 827.796875 239.523438 C 829.507812 239.800781 831.332031 240.117188 833.179688 240.453125 C 836.277344 241.011719 839.378906 241.546875 842.496094 241.980469 L 842.554688 242 C 842.734375 242.039062 842.992188 242.0625 843.230469 242.082031 C 844.34375 242.179688 845.535156 242.277344 845.792969 243.84375 C 845.871094 244.339844 845.753906 244.835938 845.515625 245.253906 C 845.257812 245.648438 844.859375 245.988281 844.382812 246.125 L 844.242188 246.144531 C 842.457031 246.285156 840.707031 245.90625 838.960938 245.53125 C 838.144531 245.351562 837.332031 245.175781 836.539062 245.054688 L 836.476562 245.035156 C 834.691406 244.660156 832.980469 244.320312 831.273438 243.984375 C 828.15625 243.390625 825.058594 242.773438 821.980469 241.980469 C 819.972656 242.972656 817.6875 244.125 815.425781 245.253906 C 812.625 246.660156 803.429688 251.699219 800.449219 253.164062 C 799.65625 253.5625 799.058594 253.839844 798.441406 254.136719 C 797.152344 254.753906 795.859375 255.367188 794.648438 256.0625 C 794.511719 256.199219 794.351562 256.320312 794.191406 256.398438 C 793.914062 256.535156 793.597656 256.578125 793.277344 256.558594 C 792.980469 256.515625 792.664062 256.417969 792.425781 256.21875 C 792.226562 256.0625 792.066406 255.882812 791.949219 255.644531 Z M 693.214844 265.441406 C 690.933594 263.636719 673.832031 249.792969 671.765625 247.730469 C 670.714844 246.699219 669.660156 245.648438 668.648438 244.679688 C 667.574219 244.757812 666.523438 244.855469 665.449219 244.957031 C 664.316406 245.074219 663.164062 245.234375 661.992188 245.453125 C 659.171875 245.96875 656.53125 246.800781 653.851562 247.652344 C 652.796875 247.988281 651.746094 248.308594 650.671875 248.625 C 650.136719 248.785156 649.5625 248.722656 649.085938 248.484375 C 648.605469 248.246094 648.230469 247.851562 648.050781 247.296875 L 648.03125 247.238281 C 647.871094 246.742188 647.953125 246.1875 648.171875 245.730469 C 648.410156 245.253906 648.804688 244.875 649.34375 244.699219 L 649.402344 244.679688 C 650.253906 244.421875 651.167969 244.164062 652.203125 243.867188 C 653.136719 243.609375 654.070312 243.351562 655.023438 243.09375 C 656.394531 242.714844 657.804688 242.378906 659.234375 242.082031 C 660.644531 241.804688 662.074219 241.585938 663.503906 241.425781 C 664 241.347656 664.515625 241.308594 665.03125 241.269531 C 662.09375 238.453125 659.132812 235.65625 656.09375 232.917969 L 656.074219 232.898438 C 655.417969 232.285156 654.726562 231.691406 654.007812 231.09375 C 652.738281 230.023438 651.46875 228.953125 650.414062 227.664062 L 650.394531 227.625 C 650.175781 227.328125 650.078125 226.988281 650.097656 226.652344 C 650.097656 226.394531 650.175781 226.136719 650.296875 225.898438 C 650.414062 225.660156 650.59375 225.460938 650.792969 225.304688 C 651.050781 225.105469 651.367188 225.007812 651.726562 225.007812 C 652.0625 225.007812 652.382812 225.105469 652.660156 225.285156 C 652.898438 225.441406 653.074219 225.640625 653.214844 225.878906 C 653.511719 226.175781 653.871094 226.472656 654.128906 226.710938 L 654.148438 226.730469 C 655.738281 228.019531 657.285156 229.347656 658.855469 230.660156 C 659.929688 231.570312 660.980469 232.464844 662.015625 233.375 L 661.894531 232.601562 C 661.539062 230.441406 661.199219 228.277344 660.820312 226.058594 L 660.683594 225.246094 C 660.40625 223.558594 660.128906 221.875 659.96875 220.128906 C 659.929688 219.632812 660.105469 219.15625 660.40625 218.800781 C 660.703125 218.441406 661.160156 218.164062 661.617188 218.085938 L 661.695312 218.066406 C 662.191406 218.007812 662.6875 218.144531 663.085938 218.421875 C 663.484375 218.699219 663.78125 219.136719 663.878906 219.652344 L 663.902344 219.730469 C 664.238281 222.527344 664.574219 225.34375 664.914062 228.160156 C 665.25 230.855469 665.589844 233.59375 665.945312 236.351562 C 666.046875 236.46875 666.105469 236.585938 666.164062 236.707031 C 666.203125 236.804688 666.222656 236.90625 666.246094 237.003906 C 667.277344 237.917969 668.308594 238.828125 669.324219 239.742188 C 670.175781 240.515625 671.308594 241.503906 672.621094 242.695312 C 673.433594 243.410156 674.1875 244.101562 674.964844 244.796875 C 676.832031 246.503906 693.734375 260.007812 695.679688 261.554688 C 696.355469 262.070312 696.59375 262.785156 696.554688 263.457031 C 696.535156 263.816406 696.414062 264.171875 696.234375 264.488281 C 696.054688 264.804688 695.796875 265.082031 695.5 265.28125 C 694.925781 265.660156 694.210938 265.777344 693.414062 265.460938 L 693.316406 265.421875 Z M 715.300781 182.492188 C 713.335938 182.6875 711.984375 180.882812 711.90625 179.160156 C 711.6875 174.5 719.273438 173.882812 718.578125 179.773438 C 718.082031 181.101562 716.992188 182.847656 715.300781 182.492188 Z M 764.082031 183.699219 C 762.117188 183.898438 760.765625 182.09375 760.6875 180.367188 C 760.46875 175.707031 768.054688 175.09375 767.359375 180.984375 C 766.84375 182.3125 765.75 184.035156 764.082031 183.699219 Z M 764.082031 183.699219 " fill-opacity="1" fill-rule="nonzero"/></g><path fill="#bd003b" d="M 741.121094 247.832031 C 736.753906 247.257812 737.625 239.601562 742.074219 240.433594 C 747.21875 240.730469 746.066406 248.40625 741.121094 247.832031 Z M 728.886719 420.414062 C 726.265625 419.304688 726.664062 415.558594 728.589844 413.949219 C 729.105469 413.453125 729.859375 413.195312 730.554688 413.175781 C 731.132812 412.960938 731.769531 412.917969 732.402344 413.097656 C 737.308594 415.121094 733.316406 422.023438 728.886719 420.414062 Z M 725.648438 388.765625 C 723.027344 387.65625 723.425781 383.90625 725.351562 382.300781 C 725.867188 381.804688 726.625 381.546875 727.320312 381.527344 C 727.894531 381.308594 728.53125 381.269531 729.164062 381.449219 C 734.089844 383.472656 730.097656 390.371094 725.648438 388.765625 Z M 728.886719 351.207031 C 726.265625 350.097656 726.664062 346.347656 728.589844 344.742188 C 729.105469 344.246094 729.859375 343.988281 730.554688 343.96875 C 731.132812 343.75 731.769531 343.710938 732.402344 343.890625 C 737.308594 345.914062 733.316406 352.8125 728.886719 351.207031 Z M 735.324219 312.578125 C 732.703125 311.46875 733.097656 307.71875 735.023438 306.113281 C 735.542969 305.617188 736.296875 305.359375 736.992188 305.339844 C 737.566406 305.121094 738.203125 305.082031 738.839844 305.261719 C 743.765625 307.28125 739.773438 314.183594 735.324219 312.578125 Z M 735.859375 276.625 C 733.238281 275.515625 733.632812 271.765625 735.5625 270.160156 C 736.078125 269.664062 736.832031 269.40625 737.527344 269.386719 C 738.105469 269.167969 738.738281 269.128906 739.375 269.308594 C 744.300781 271.332031 740.308594 278.230469 735.859375 276.625 Z M 735.859375 276.625 " fill-opacity="1" fill-rule="nonzero"/><path fill="#d8ae84" d="M 737.269531 189.925781 C 735.601562 187.566406 734.628906 185.007812 733.257812 182.492188 C 731.332031 178.644531 729.1875 174.578125 727.636719 170.632812 C 726.5625 168.726562 727.835938 167.101562 729.878906 168.171875 C 734.648438 170.550781 738.699219 174.242188 742.691406 177.632812 C 744.28125 178.882812 745.871094 180.128906 747.238281 181.636719 C 748.234375 182.054688 749.085938 183.066406 748.628906 184.175781 C 748.429688 184.789062 747.835938 185.226562 747.359375 185.605469 C 745.988281 186.636719 744.597656 187.625 743.167969 188.558594 C 741.539062 189.371094 738.898438 191.652344 737.269531 189.925781 Z M 737.269531 189.925781 " fill-opacity="1" fill-rule="nonzero"/><g clip-path="url(#36d2f6a051)"><path fill="#ffffff" d="M 650.625 446.539062 C 647.765625 455.929688 644.28125 465.539062 637.484375 472.867188 C 622.851562 489.582031 599.15625 492.6875 578.101562 492.511719 C 568.472656 492.613281 558.839844 491.667969 549.457031 489.457031 C 543.382812 488.042969 537.160156 486.304688 531.761719 483.222656 C 523.574219 478.132812 516.304688 471.128906 511.625 462.632812 C 508.21875 455.679688 505.976562 448.054688 505.328125 440.332031 C 505.007812 434.023438 505.679688 427.691406 506.574219 421.457031 C 507.394531 415.96875 508.441406 410.480469 510.234375 405.238281 C 512.199219 399.550781 514.761719 394.410156 517.277344 389.019531 C 520.535156 381.816406 524.195312 374.691406 529.597656 368.851562 C 531.636719 366.59375 533.902344 364.53125 536.367188 362.742188 C 534.324219 360.683594 532.929688 357.800781 531.460938 355.464844 C 528.128906 349.828125 527.207031 343.148438 527.953125 336.714844 C 528.425781 331.175781 529.097656 325.636719 530.316406 320.222656 C 531.660156 313.246094 534.199219 306.589844 538.058594 300.652344 C 542.140625 294.867188 547.539062 290.621094 553.761719 287.664062 C 545 280.3125 538.78125 270.078125 540.371094 258.507812 C 542.039062 248.449219 544.902344 238.066406 551.84375 230.292969 C 573.050781 208.4375 609.1875 212.660156 621.332031 241.792969 C 628.152344 256.84375 623.523438 273.605469 613.246094 285.207031 C 615.78125 286.96875 618.195312 289.105469 620.511719 291.710938 C 622.628906 294.195312 624.246094 297.027344 625.988281 299.785156 C 627.828125 302.691406 629.421875 305.769531 630.441406 309.074219 C 635.617188 324.023438 635.445312 340.863281 626.707031 354.449219 C 625.339844 356.734375 623.871094 358.96875 622.152344 361.003906 C 623.523438 361.378906 624.84375 361.824219 626.160156 362.371094 C 637.238281 369.796875 644.328125 379.507812 648.585938 390.113281 C 656.050781 408.714844 654.734375 430.074219 650.625 446.539062 Z M 650.625 446.539062 " fill-opacity="1" fill-rule="nonzero"/></g><g clip-path="url(#8e81298620)"><path fill="#000000" d="M 579.246094 260.765625 C 574.046875 259.773438 567.921875 258.085938 565.210938 253.117188 C 565.011719 252.695312 564.6875 252.171875 565.035156 251.75 C 565.484375 251.253906 566.105469 251.625 566.304688 252.148438 C 567.003906 253.339844 567.898438 254.382812 569.019531 255.203125 C 576.085938 259.824219 586.015625 260.964844 593.332031 256.246094 C 595.722656 254.78125 597.566406 252.398438 598.585938 249.8125 C 598.511719 248.324219 600.550781 248.175781 600.453125 249.714844 C 598.011719 258.480469 587.585938 262.257812 579.246094 260.765625 Z M 626.160156 306.140625 C 625.539062 304.601562 626.984375 303.832031 628.152344 303.210938 C 628.402344 303.0625 628.648438 302.9375 628.800781 302.839844 L 628.847656 302.789062 C 629.945312 302.191406 630.941406 301.648438 631.960938 301.125 L 633.253906 300.429688 C 634.347656 299.859375 641.117188 296.058594 642.1875 295.488281 C 643.234375 294.941406 644.230469 294.417969 645.226562 293.898438 L 645.226562 293.871094 C 645.25 293.796875 645.273438 293.722656 645.273438 293.648438 L 645.300781 293.601562 C 646.296875 290.445312 647.390625 287.367188 648.460938 284.285156 L 649.332031 281.828125 C 649.53125 281.257812 649.707031 280.734375 649.855469 280.261719 C 650.027344 279.742188 650.179688 279.269531 650.328125 278.796875 C 650.378906 278.597656 650.402344 278.523438 650.425781 278.449219 C 650.75 277.234375 651.171875 275.667969 652.992188 276.039062 L 653.039062 276.066406 C 654.734375 276.613281 654.582031 277.953125 654.160156 279.246094 C 654.0625 279.519531 653.984375 279.742188 653.910156 279.964844 C 653.785156 280.289062 653.6875 280.585938 653.613281 280.808594 L 653.585938 280.859375 C 652.964844 282.671875 652.242188 284.460938 651.546875 286.273438 C 651.148438 287.292969 650.75 288.308594 650.300781 289.527344 C 650.054688 290.171875 649.78125 290.917969 649.507812 291.636719 L 649.953125 291.414062 C 653.214844 289.726562 656.5 288.085938 659.835938 286.570312 C 663.167969 285.054688 666.605469 283.664062 670.089844 282.472656 L 670.113281 282.472656 C 670.859375 282.25 671.480469 282.472656 671.929688 282.921875 C 672.128906 283.117188 672.277344 283.34375 672.351562 283.589844 C 672.453125 283.839844 672.503906 284.113281 672.476562 284.386719 C 672.429688 285.007812 672.105469 285.578125 671.40625 285.902344 L 671.359375 285.925781 C 668.695312 286.867188 666.082031 287.914062 663.492188 289.003906 C 661.527344 289.847656 659.535156 290.742188 657.570312 291.6875 L 658.042969 291.761719 C 659.5625 292.011719 661.203125 292.308594 662.820312 292.582031 C 665.582031 293.078125 668.320312 293.550781 671.109375 293.949219 L 671.160156 293.949219 C 671.332031 293.996094 671.558594 293.996094 671.757812 294.023438 C 672.75 294.121094 673.820312 294.195312 674.046875 295.585938 C 674.121094 296.007812 674.019531 296.480469 673.796875 296.851562 C 673.574219 297.226562 673.222656 297.5 672.777344 297.625 L 672.652344 297.648438 C 671.058594 297.773438 669.492188 297.449219 667.949219 297.101562 C 667.226562 296.953125 666.503906 296.777344 665.78125 296.679688 L 665.734375 296.679688 C 664.140625 296.332031 662.621094 296.035156 661.105469 295.761719 C 658.339844 295.214844 655.554688 294.691406 652.816406 293.972656 C 651.023438 294.867188 649.007812 295.882812 646.992188 296.902344 C 644.503906 298.167969 636.316406 302.640625 633.652344 303.929688 C 632.957031 304.277344 632.40625 304.550781 631.859375 304.800781 C 630.714844 305.347656 629.570312 305.894531 628.476562 306.515625 C 628.351562 306.640625 628.203125 306.738281 628.054688 306.8125 C 627.804688 306.9375 627.503906 306.988281 627.257812 306.9375 C 626.984375 306.910156 626.707031 306.8125 626.484375 306.640625 C 626.3125 306.515625 626.160156 306.339844 626.0625 306.117188 Z M 538.257812 314.859375 C 536.214844 313.246094 520.984375 300.925781 519.144531 299.113281 C 518.222656 298.195312 517.277344 297.25 516.355469 296.40625 C 515.410156 296.480469 514.464844 296.554688 513.519531 296.65625 C 512.496094 296.753906 511.476562 296.902344 510.457031 297.078125 C 507.941406 297.523438 505.605469 298.269531 503.214844 299.039062 C 502.292969 299.335938 501.347656 299.636719 500.378906 299.90625 C 499.90625 300.058594 499.382812 300.007812 498.984375 299.785156 C 498.558594 299.585938 498.210938 299.210938 498.0625 298.714844 L 498.039062 298.667969 C 497.914062 298.21875 497.964844 297.722656 498.164062 297.324219 C 498.359375 296.902344 498.734375 296.554688 499.183594 296.40625 L 499.230469 296.382812 C 500.003906 296.15625 500.800781 295.910156 501.722656 295.660156 C 502.542969 295.414062 503.386719 295.1875 504.234375 294.992188 C 505.453125 294.667969 506.699219 294.34375 507.96875 294.097656 C 509.210938 293.847656 510.480469 293.648438 511.777344 293.523438 C 512.222656 293.449219 512.671875 293.425781 513.144531 293.375 C 510.53125 290.867188 507.894531 288.382812 505.179688 285.949219 L 505.15625 285.925781 C 504.582031 285.378906 503.960938 284.855469 503.3125 284.3125 C 502.195312 283.367188 501.050781 282.421875 500.128906 281.257812 L 500.101562 281.230469 C 499.90625 280.957031 499.828125 280.660156 499.828125 280.363281 C 499.828125 280.136719 499.90625 279.914062 500.003906 279.691406 C 500.101562 279.492188 500.277344 279.292969 500.453125 279.167969 C 500.675781 278.996094 500.972656 278.898438 501.296875 278.898438 C 501.597656 278.898438 501.894531 278.972656 502.121094 279.144531 C 502.320312 279.269531 502.492188 279.46875 502.617188 279.691406 C 502.890625 279.964844 503.191406 280.238281 503.4375 280.4375 L 503.464844 280.460938 C 504.855469 281.605469 506.277344 282.796875 507.644531 283.964844 C 508.589844 284.757812 509.535156 285.578125 510.457031 286.371094 L 510.355469 285.703125 C 510.058594 283.789062 509.734375 281.851562 509.386719 279.890625 L 509.261719 279.167969 C 509.011719 277.679688 508.765625 276.164062 508.613281 274.601562 C 508.566406 274.152344 508.738281 273.730469 509.011719 273.433594 C 509.285156 273.109375 509.683594 272.886719 510.109375 272.8125 L 510.183594 272.8125 C 510.605469 272.761719 511.054688 272.886719 511.425781 273.132812 C 511.777344 273.382812 512.050781 273.78125 512.125 274.226562 L 512.125 274.300781 C 512.421875 276.785156 512.722656 279.292969 513.019531 281.800781 C 513.320312 284.210938 513.617188 286.644531 513.941406 289.078125 C 514.015625 289.179688 514.089844 289.277344 514.117188 289.402344 C 514.164062 289.5 514.164062 289.578125 514.191406 289.675781 C 515.109375 290.496094 516.03125 291.289062 516.925781 292.109375 C 517.699219 292.78125 518.695312 293.675781 519.863281 294.742188 C 520.585938 295.386719 521.257812 296.007812 521.957031 296.628906 C 523.621094 298.144531 538.679688 310.164062 540.398438 311.53125 C 540.996094 312.003906 541.21875 312.625 541.167969 313.21875 C 541.144531 313.542969 541.042969 313.867188 540.894531 314.140625 C 540.71875 314.414062 540.496094 314.660156 540.246094 314.835938 C 539.75 315.15625 539.101562 315.28125 538.382812 315.007812 L 538.304688 314.984375 Z M 557.917969 241.046875 C 556.175781 241.21875 554.980469 239.628906 554.882812 238.089844 C 554.683594 233.941406 561.453125 233.398438 560.804688 238.636719 C 560.382812 239.804688 559.410156 241.34375 557.917969 241.046875 Z M 601.347656 242.113281 C 599.605469 242.289062 598.410156 240.699219 598.3125 239.160156 C 598.113281 235.011719 604.882812 234.464844 604.234375 239.707031 C 603.8125 240.898438 602.839844 242.4375 601.347656 242.113281 Z M 601.347656 242.113281 " fill-opacity="1" fill-rule="nonzero"/></g><path fill="#bd003b" d="M 580.890625 299.1875 C 577.007812 298.667969 577.777344 291.859375 581.734375 292.605469 C 586.339844 292.855469 585.320312 299.683594 580.890625 299.1875 Z M 570.015625 452.773438 C 567.675781 451.78125 568.046875 448.453125 569.738281 447.039062 C 570.1875 446.617188 570.859375 446.367188 571.480469 446.34375 C 572.003906 446.144531 572.550781 446.117188 573.125 446.269531 C 577.503906 448.082031 573.945312 454.214844 570.015625 452.773438 Z M 567.125 424.609375 C 564.789062 423.617188 565.160156 420.289062 566.851562 418.875 C 567.300781 418.449219 567.972656 418.203125 568.59375 418.179688 C 569.117188 417.980469 569.664062 417.953125 570.238281 418.101562 C 574.644531 419.890625 571.085938 426.050781 567.125 424.609375 Z M 570.015625 391.179688 C 567.675781 390.1875 568.046875 386.859375 569.738281 385.445312 C 570.1875 385.023438 570.859375 384.773438 571.480469 384.75 C 572.003906 384.550781 572.550781 384.523438 573.125 384.675781 C 577.503906 386.488281 573.945312 392.621094 570.015625 391.179688 Z M 575.738281 356.808594 C 573.398438 355.8125 573.773438 352.484375 575.464844 351.070312 C 575.914062 350.648438 576.585938 350.398438 577.207031 350.375 C 577.730469 350.175781 578.277344 350.152344 578.847656 350.300781 C 583.253906 352.089844 579.695312 358.25 575.738281 356.808594 Z M 576.234375 324.820312 C 573.894531 323.824219 574.269531 320.496094 575.960938 319.082031 C 576.410156 318.660156 577.082031 318.410156 577.703125 318.386719 C 578.226562 318.1875 578.773438 318.164062 579.347656 318.3125 C 583.726562 320.101562 580.167969 326.234375 576.234375 324.820312 Z M 576.234375 324.820312 " fill-opacity="1" fill-rule="nonzero"/><path fill="#d8ae84" d="M 577.480469 247.652344 C 575.988281 245.566406 575.140625 243.28125 573.921875 241.046875 C 572.203125 237.617188 570.289062 233.992188 568.917969 230.492188 C 567.949219 228.800781 569.09375 227.335938 570.910156 228.304688 C 575.164062 230.417969 578.75 233.695312 582.308594 236.726562 C 583.726562 237.84375 585.144531 238.960938 586.339844 240.300781 C 587.238281 240.675781 587.984375 241.566406 587.585938 242.5625 C 587.410156 243.109375 586.886719 243.503906 586.441406 243.828125 C 585.21875 244.746094 583.976562 245.640625 582.707031 246.460938 C 581.261719 247.15625 578.921875 249.191406 577.480469 247.652344 Z M 577.480469 247.652344 " fill-opacity="1" fill-rule="nonzero"/><path fill="#a68e8e" d="M 626.261719 293.328125 C 626.359375 295.289062 626.234375 295.6875 624.171875 295.511719 C 621.730469 295.6875 619.417969 296.230469 617.078125 296.851562 C 617.648438 299.511719 618.023438 302.191406 618.84375 304.726562 C 621.058594 311.035156 623.25 317.269531 624.644531 323.800781 C 625.613281 328.867188 625.589844 334.109375 626.011719 339.199219 C 626.632812 346.054688 629.445312 352.710938 629.273438 359.613281 C 629.320312 362.296875 629.371094 364.980469 629.445312 367.636719 C 629.621094 368.929688 628.601562 369.425781 627.457031 369.523438 C 622.476562 370.167969 617.75 371.289062 612.871094 372.058594 C 608.964844 372.605469 604.980469 372.953125 601.074219 373.421875 C 599.355469 372.925781 599.855469 370.492188 599.605469 369.101562 C 599.457031 367.164062 599.429688 365.226562 599.457031 363.265625 C 599.554688 356.609375 598.757812 350.003906 597.390625 343.496094 C 596.621094 340.339844 596.445312 336.914062 596.269531 333.710938 C 596.046875 330.753906 595.847656 327.800781 595.671875 324.917969 C 595.050781 316.746094 589.851562 309.695312 589.476562 301.472656 C 589.101562 301.347656 588.929688 301.050781 588.855469 300.703125 C 585.941406 301.101562 583.054688 301.546875 580.117188 301.421875 C 576.757812 301.398438 573.472656 300.480469 570.113281 300.503906 C 562.523438 300.828125 554.90625 300.875 547.339844 300.179688 C 545.5 299.984375 543.683594 299.785156 541.839844 299.636719 C 540.96875 299.609375 539.875 299.460938 539.75 298.417969 C 539.351562 295.214844 540.570312 292.011719 540.523438 288.78125 C 540.671875 284.359375 539.972656 279.640625 539.972656 275.394531 C 539.898438 274.699219 540.046875 273.878906 540.769531 273.632812 C 544.679688 272.539062 548.757812 272.265625 552.792969 271.667969 C 556.722656 271.023438 560.582031 270.03125 564.5625 269.609375 C 572.527344 268.914062 580.515625 268.464844 588.480469 268.117188 C 595.5 267.597656 602.441406 266.253906 609.511719 266.378906 C 614.191406 266.253906 618.917969 266.828125 623.574219 266.179688 C 623.996094 266.105469 624.445312 266.082031 624.816406 266.28125 C 625.636719 266.703125 625.589844 267.671875 625.5625 268.414062 C 625.539062 269.382812 625.488281 270.351562 625.464844 271.296875 C 625.441406 274.675781 625.515625 278.050781 625.8125 281.40625 C 626.285156 285.355469 626.1875 289.378906 626.261719 293.328125 Z M 626.261719 293.328125 " fill-opacity="1" fill-rule="nonzero"/><path fill="#665958" d="M 590.097656 307.683594 C 589.898438 306.613281 590.871094 306.214844 591.765625 306.316406 C 596.71875 305.59375 601.671875 305.050781 606.597656 304.179688 C 609.933594 303.507812 613.445312 302.492188 616.703125 301.796875 C 617.5 301.597656 618.746094 301.324219 618.917969 302.441406 C 619.09375 303.460938 617.875 303.632812 617.203125 303.734375 C 613.21875 304.578125 609.3125 305.746094 605.28125 306.390625 C 600.75 306.9375 596.195312 307.65625 591.667969 308.128906 C 591.167969 308.625 590.273438 308.351562 590.097656 307.683594 Z M 621.929688 295.734375 C 621.507812 287.414062 621.679688 278.996094 620.886719 270.726562 C 620.886719 269.535156 620.335938 267.945312 620.636719 266.851562 C 620.960938 266.253906 621.980469 266.378906 622.128906 267.050781 C 623.5 275.222656 623.546875 283.515625 623.871094 291.738281 C 623.699219 293.027344 624.84375 296.679688 622.976562 296.753906 C 622.402344 296.777344 621.957031 296.308594 621.929688 295.734375 Z M 611.949219 295.960938 C 611.777344 286.570312 612.671875 277.132812 611.949219 267.769531 C 612.074219 266.851562 613.492188 266.828125 613.59375 267.769531 C 614.464844 275.496094 614.164062 283.167969 613.941406 290.894531 C 613.917969 292.582031 613.992188 294.269531 614.015625 295.984375 C 614.015625 296.554688 613.542969 297.027344 612.96875 297.027344 C 612.398438 297.003906 611.976562 296.53125 611.949219 295.960938 Z M 600.003906 297.820312 C 599.65625 289.699219 599.109375 281.554688 599.058594 273.40625 C 599.058594 271.84375 598.984375 270.304688 599.109375 268.738281 C 599.15625 268.316406 599.257812 267.871094 599.65625 267.621094 C 600.550781 267.050781 601.648438 268.167969 601 269.011719 C 600.925781 275.296875 601.273438 281.554688 601.621094 287.8125 C 601.769531 291.089844 601.796875 294.371094 601.945312 297.648438 C 601.996094 298.839844 600.152344 298.988281 600.003906 297.820312 Z M 584.847656 299.136719 C 584.746094 289.179688 585.742188 279.144531 584.847656 269.234375 C 584.871094 267.917969 586.914062 268.09375 586.6875 269.410156 C 587.632812 277.007812 587.011719 284.609375 586.960938 292.234375 C 586.9375 294.269531 586.886719 296.308594 586.839844 298.34375 C 586.886719 299.089844 586.789062 300.105469 585.84375 300.105469 C 585.320312 300.132812 584.871094 299.660156 584.847656 299.136719 Z M 572.800781 299.636719 C 572.527344 291.785156 571.90625 284.0625 571.929688 276.238281 C 571.878906 273.980469 571.65625 271.71875 571.53125 269.457031 C 571.53125 269.210938 571.632812 268.960938 571.855469 268.789062 C 573.621094 267.917969 573.199219 270.898438 573.421875 271.894531 C 573.945312 277.183594 573.746094 282.347656 574.09375 287.640625 C 574.09375 287.613281 574.09375 287.613281 574.09375 287.589844 C 574.394531 291.539062 574.59375 295.4375 574.691406 299.386719 C 574.84375 300.605469 572.976562 300.875 572.800781 299.636719 Z M 559.960938 301.050781 C 559.0625 300.925781 559.0625 299.957031 559.238281 299.238281 C 559.660156 294.691406 559.835938 290.121094 559.859375 285.578125 C 560.035156 280.710938 559.710938 275.765625 560.109375 270.925781 C 560.28125 270.503906 560.753906 270.277344 561.203125 270.402344 C 562.222656 270.699219 561.726562 271.917969 561.824219 272.710938 C 561.800781 280.3125 561.976562 287.9375 561.476562 295.535156 C 561.378906 297.25 561.351562 298.742188 561.003906 300.378906 C 560.90625 300.828125 560.40625 301.125 559.960938 301.050781 Z M 547.042969 300.40625 C 545.847656 300.179688 546.296875 298.890625 546.421875 298.070312 C 546.84375 291.511719 547.042969 285.007812 547.015625 278.449219 C 547.015625 276.933594 546.96875 275.417969 546.941406 273.878906 C 546.941406 273.257812 546.867188 272.414062 547.488281 272.042969 C 548.386719 271.546875 549.53125 272.5625 548.835938 273.433594 C 549.132812 279.144531 549.109375 284.882812 548.757812 290.59375 C 548.636719 293.699219 548.757812 296.65625 548.136719 299.660156 C 548.011719 300.15625 547.515625 300.453125 547.042969 300.40625 Z M 627.628906 375.707031 C 627.378906 374.367188 627.132812 372.953125 626.859375 371.636719 C 626.585938 370.320312 626.210938 369.050781 625.960938 367.785156 C 625.789062 367.238281 626.210938 366.667969 626.734375 366.59375 C 627.28125 366.519531 627.730469 366.917969 627.804688 367.4375 C 628.476562 370.09375 629.148438 372.753906 629.597656 375.410156 C 629.820312 376.75 627.828125 377.023438 627.628906 375.707031 Z M 621.183594 378.214844 C 620.808594 375.085938 620.734375 371.933594 620.164062 368.828125 C 619.816406 367.636719 621.632812 367.089844 621.957031 368.28125 C 622.578125 371.460938 622.703125 374.714844 623.101562 377.945312 C 623.25 379.183594 621.382812 379.457031 621.183594 378.214844 Z M 615.136719 376.75 C 614.960938 374.191406 615.1875 371.636719 615.035156 369.078125 C 614.9375 368.554688 615.359375 368.007812 615.933594 368.007812 C 616.480469 368.007812 616.878906 368.503906 616.828125 369.003906 C 616.902344 370.292969 616.929688 371.609375 616.976562 372.902344 C 617.027344 374.144531 617.027344 375.359375 617.078125 376.601562 C 617.101562 377.074219 616.703125 377.496094 616.230469 377.570312 C 615.707031 377.671875 615.160156 377.296875 615.136719 376.75 Z M 608.8125 377.84375 C 608.738281 375.90625 608.691406 373.996094 608.613281 372.058594 C 608.640625 371.015625 608.042969 369.003906 609.636719 369.050781 C 610.433594 369.152344 610.480469 369.972656 610.433594 370.59375 C 610.605469 373.074219 610.753906 375.386719 610.832031 377.84375 C 610.804688 379.136719 608.863281 379.136719 608.8125 377.84375 Z M 601.449219 380.601562 C 601.648438 377.519531 602.09375 374.464844 602.691406 371.4375 C 602.742188 371.0625 602.839844 370.617188 603.214844 370.417969 C 603.585938 370.167969 604.136719 370.320312 604.359375 370.691406 C 604.535156 370.941406 604.558594 371.289062 604.410156 371.558594 C 603.886719 374.441406 603.585938 377.59375 603.363281 380.476562 C 603.488281 381.792969 601.496094 381.96875 601.449219 380.601562 Z M 600.601562 366.59375 C 599.582031 366.445312 599.628906 365.101562 600.601562 364.90625 C 604.136719 364.085938 607.792969 363.710938 611.402344 363.242188 C 617.523438 362.496094 623.597656 361.625 629.695312 360.65625 C 630.914062 360.484375 631.1875 362.371094 629.945312 362.546875 C 620.214844 364.109375 610.28125 364.828125 600.601562 366.59375 Z M 598.164062 355.167969 C 597.414062 353.105469 601.894531 353.628906 603.089844 353.304688 C 607.519531 352.859375 611.800781 351.765625 616.132812 350.945312 C 616.105469 350.945312 616.082031 350.972656 616.03125 350.972656 C 618.320312 350.523438 620.609375 349.976562 622.902344 349.457031 C 624.445312 349.109375 625.988281 348.761719 627.554688 348.414062 C 628.101562 348.214844 628.824219 348.363281 629 348.984375 C 629.222656 349.878906 628.328125 350.226562 627.605469 350.277344 C 624.070312 351.019531 620.5625 351.941406 617.050781 352.636719 C 613.34375 353.355469 609.660156 354.199219 605.925781 354.796875 C 603.761719 355.21875 601.449219 355.070312 599.355469 355.664062 C 598.933594 355.839844 598.359375 355.640625 598.164062 355.167969 Z M 596.941406 341.285156 C 596.644531 340.566406 597.367188 340.066406 597.988281 339.992188 C 600.351562 339.421875 602.765625 339.175781 605.15625 338.828125 C 611.304688 337.882812 617.550781 336.617188 623.597656 335.398438 C 623.597656 335.398438 623.574219 335.398438 623.574219 335.398438 C 623.546875 335.398438 623.523438 335.425781 623.472656 335.425781 C 624.246094 335.273438 624.964844 335.125 625.714844 334.953125 C 627.503906 334.378906 627.703125 336.890625 625.8125 336.9375 C 617.574219 338.652344 609.335938 340.191406 600.972656 341.1875 C 599.953125 341.359375 599.007812 341.484375 598.0625 341.683594 C 597.664062 341.929688 597.117188 341.730469 596.941406 341.285156 Z M 595.449219 329.6875 C 594.480469 327.699219 597.8125 328.195312 598.910156 327.847656 C 603.910156 327.078125 608.914062 326.136719 613.917969 325.363281 C 617.027344 324.867188 620.113281 324.296875 623.222656 323.777344 C 624.070312 323.625 625.390625 323.304688 625.589844 324.472656 C 625.6875 325.140625 625.015625 325.738281 624.34375 325.589844 C 616.628906 326.855469 608.914062 328.046875 601.199219 329.3125 C 599.53125 329.613281 597.8125 329.761719 596.144531 330.035156 C 595.898438 330.035156 595.625 329.910156 595.449219 329.6875 Z M 593.882812 317.367188 C 593.085938 317.269531 592.859375 316.152344 593.558594 315.753906 C 595.398438 315.382812 597.339844 315.40625 599.183594 315.058594 C 603.039062 314.511719 606.921875 313.964844 610.753906 313.320312 C 614.191406 312.921875 617.648438 311.878906 621.109375 311.953125 C 622.203125 312.226562 621.855469 313.941406 620.734375 313.765625 C 611.777344 314.6875 602.890625 316.871094 593.882812 317.367188 Z M 593.882812 317.367188 " fill-opacity="1" fill-rule="nonzero"/><g clip-path="url(#1b71d50337)"><path fill="#ffffff" d="M 909.265625 479.828125 C 923.074219 495.621094 896.929688 497.617188 886.304688 497.945312 C 864.898438 498.128906 843.46875 497.660156 822.105469 496.601562 C 812.09375 496.050781 802.085938 495.621094 792.078125 495.664062 C 755.371094 496.007812 718.765625 499.535156 682.078125 499.492188 C 671.230469 499.269531 660.300781 499.390625 649.558594 497.78125 C 640.140625 496.355469 631.03125 493.296875 621.59375 491.953125 C 611.5625 490.425781 601.492188 492.175781 591.445312 492.277344 C 584.375 492.300781 577.308594 491.871094 570.261719 491.484375 C 565.523438 490.953125 557.535156 491.546875 553.917969 488.367188 C 550.324219 483.863281 555.410156 478.480469 558.863281 475.609375 C 564.152344 471.226562 569.976562 467.578125 575.652344 463.726562 C 579.554688 461.097656 583.476562 458.46875 587.417969 455.921875 C 588.214844 455.410156 589.296875 455.617188 589.851562 456.390625 C 600.902344 450.417969 611.585938 443.753906 623.1875 438.945312 C 633.851562 434.746094 645.167969 432.566406 656.339844 430.222656 C 667.492188 427.675781 678.871094 426.472656 690.167969 424.71875 C 712.636719 420.519531 734.1875 410.453125 757.433594 411.574219 C 765.011719 411.820312 772.570312 413.0625 779.820312 415.304688 C 787.277344 417.605469 794.488281 420.644531 801.902344 423.046875 C 818.265625 428.121094 834.300781 434.113281 850.089844 440.738281 C 859.035156 444.46875 867.207031 449.726562 875.539062 454.617188 C 881.300781 458 887.308594 460.953125 892.902344 464.625 C 899.175781 468.699219 904.792969 473.835938 909.265625 479.828125 Z M 909.265625 479.828125 " fill-opacity="1" fill-rule="nonzero"/></g></svg>