<svg xmlns="http://www.w3.org/2000/svg" xmlns:xlink="http://www.w3.org/1999/xlink" width="500" zoomAndPan="magnify" viewBox="0 0 375 374.999991" height="500" preserveAspectRatio="xMidYMid meet" version="1.0"><defs><clipPath id="8b63ba7853"><path d="M 0 76.015625 L 375 76.015625 L 375 298.765625 L 0 298.765625 Z M 0 76.015625 " clip-rule="nonzero"/></clipPath></defs><g clip-path="url(#8b63ba7853)"><path fill="#ffb933" d="M 362.4375 286.050781 C 361.84375 293.265625 355.8125 298.820312 348.566406 298.820312 C 293.941406 298.820312 80.992188 298.820312 26.371094 298.820312 C 19.121094 298.820312 13.089844 293.265625 12.5 286.050781 C 10.09375 256.6875 4.109375 183.652344 0.648438 141.40625 C 0.199219 135.910156 3.042969 130.664062 7.902344 128.042969 C 12.757812 125.417969 18.710938 125.910156 23.066406 129.300781 C 47.730469 148.476562 84.152344 176.789062 101.277344 190.105469 C 103.671875 191.96875 106.765625 192.695312 109.742188 192.097656 C 112.722656 191.5 115.289062 189.636719 116.78125 186.992188 C 129.316406 164.757812 158.671875 112.695312 175.339844 83.128906 C 177.808594 78.753906 182.441406 76.050781 187.46875 76.050781 C 192.492188 76.050781 197.128906 78.753906 199.59375 83.128906 C 216.261719 112.695312 245.617188 164.757812 258.152344 186.992188 C 259.644531 189.636719 262.214844 191.5 265.191406 192.097656 C 268.171875 192.695312 271.261719 191.96875 273.65625 190.105469 C 290.785156 176.789062 327.203125 148.476562 351.867188 129.300781 C 356.226562 125.910156 362.175781 125.417969 367.035156 128.042969 C 371.890625 130.664062 374.734375 135.910156 374.285156 141.40625 C 370.824219 183.652344 364.84375 256.6875 362.4375 286.050781 Z M 362.4375 286.050781 " fill-opacity="1" fill-rule="evenodd"/></g></svg>