<?xml version="1.0" encoding="iso-8859-1"?>
<!-- Uploaded to: SVG Repo, www.svgrepo.com, Generator: SVG Repo Mixer Tools -->
<svg fill="#000000" height="800px" width="800px" version="1.1" id="Layer_1" xmlns="http://www.w3.org/2000/svg" xmlns:xlink="http://www.w3.org/1999/xlink" 
	 viewBox="0 0 512 512" xml:space="preserve">
<g>
	<g>
		<path d="M347.463,34.35H166.238L0,319.65L91.025,477.65H421.8L512,321.322L347.463,34.35z M337.927,50.812L488.258,313.01
			l-153.517-0.732L185.159,50.812H337.927z M315.763,312.255H195.992c16.499-28.618,32.245-55.951,44.339-76.983
			c6.411-11.151,11.794-20.528,15.721-27.393L315.763,312.255z M19.025,319.698L170.903,59.042l75.659,132.25
			c-5.559,9.799-136.633,237.177-150.769,261.655L19.025,319.698z M412.293,461.188H110.041
			c13.782-23.863,45.461-78.729,76.457-132.472l301.792,0.755L412.293,461.188z"/>
	</g>
</g>
</svg>